<svg width="32" height="32" viewBox="0 0 32 32" fill="none" xmlns="http://www.w3.org/2000/svg">
<path d="M10.6568 0.848982C10.2163 1.66204 10.1428 1.98089 10.1612 3.14468C10.1612 3.89397 10.2346 4.97804 10.3264 5.56791C10.5283 7.11431 10.253 7.78389 8.30738 10.3187C5.90291 13.4594 4.43454 16.042 3.03958 19.5653C1.97501 22.2755 -0.17249 30.2944 0.0110573 30.9003C0.268023 31.7771 1.44272 32.3191 1.95665 31.793C2.06678 31.6814 3.24148 29.7205 4.56302 27.4408C5.88456 25.177 7.42635 22.5943 7.99535 21.7175C11.2625 16.6159 16.31 9.99987 16.9341 9.99987C17.3562 9.99987 17.2828 12.0086 16.7322 16.2971C16.4752 18.3218 16.2182 21.0479 16.1632 22.3871C16.0531 24.9857 16.1448 25.3683 17.0259 25.7828C17.6316 26.0697 17.9987 25.7509 19.5221 23.5987C22.8626 18.8319 25.2304 15.9782 27.5431 13.8739C28.8646 12.6782 29.5621 12.2318 29.8007 12.439C29.9659 12.5825 29.2868 14.0173 27.6899 16.9826C25.2488 21.4783 24.6981 23.2161 25.0836 25.0494C25.469 26.8668 26.1848 27.4727 27.7266 27.3292C28.7729 27.2176 31.1223 26.261 31.6545 25.7349L31.9849 25.4002L31.471 25.6871C30.6634 26.1176 28.6444 26.7393 28.0203 26.7393C26.6988 26.7393 26.2583 25.9741 26.5703 24.2682C26.8456 22.8016 27.7266 20.8088 29.9659 16.5362C31.0121 14.5594 31.9115 12.7898 31.9666 12.5985C32.1318 12.1521 31.6545 11.1955 31.1957 10.9724C29.5805 10.2231 27.5247 11.6419 23.6519 16.1536C22.6057 17.3652 21.4126 18.7363 21.0272 19.1826C20.2196 20.1073 18.5677 22.4827 18.4025 22.9291C18.1822 23.503 17.9436 23.232 17.9436 22.3871C17.9436 21.9407 18.1088 20.2986 18.329 18.7681C18.7328 15.6435 18.9715 11.2274 18.7879 10.1274C18.6227 9.13899 18.1271 8.72449 17.1543 8.72449C16.3467 8.72449 16.2366 8.77231 15.3372 9.37812C14.603 9.87233 12.272 11.8173 12.584 11.6738C12.9878 11.4825 12.8226 11.7376 11.5194 13.1405C10.2713 14.4956 7.77509 17.6362 7.29787 18.4493C6.93078 19.0711 7.15103 18.816 8.56434 17.0145C9.73904 15.5 11.0422 14.0173 10.6568 14.6231C10.5834 14.7507 9.88588 15.6913 9.11498 16.6956C6.14152 20.6334 3.97567 23.9016 3.24148 25.5755C3.14971 25.7987 3.02123 25.9422 2.96616 25.8944C2.9111 25.8465 3.3149 24.5233 3.90225 22.961C4.47125 21.3986 5.18708 19.4377 5.49911 18.6087C6.45355 15.9623 8.03206 12.3753 9.17005 10.239C11.2441 6.34908 11.8682 3.97368 11.5378 1.39102C11.446 0.673617 11.3175 0.0518664 11.2625 0.00403949C11.2074 -0.0437875 10.9321 0.338828 10.6568 0.848982ZM13.3549 11.1796C13.3549 11.2115 13.2081 11.339 13.0429 11.4506C12.7492 11.6579 12.7309 11.6419 12.9695 11.3869C13.2081 11.1318 13.3549 11.0521 13.3549 11.1796Z" fill="white"/>
</svg>
